<svg width="500" height="500" viewBox="0 0 500 500" fill="none" xmlns="http://www.w3.org/2000/svg">
<circle cx="250" cy="250" r="250" fill="#06D467"/>
<path d="M199.582 361.283L118.291 381.841L138.849 300.55L199.582 361.283Z" fill="#06D467" stroke="white" stroke-width="25"/>
<circle cx="249.5" cy="250.5" r="125" fill="#06D467" stroke="white" stroke-width="25"/>
<path d="M127.033 374.291L167.549 241.92L259.405 333.776L127.033 374.291Z" fill="#06D467"/>
<path d="M218.94 179.567L213.807 178.499C208.106 177.313 202.184 177.792 196.748 179.879L192.558 181.487C186.675 183.745 181.424 187.392 177.253 192.116L176.379 193.106C169.357 201.061 166.172 211.693 167.666 222.199C168.398 227.35 170.23 232.283 173.039 236.663L181.872 250.439L195.308 266.329L214.571 285.222L235.421 301.466L240.988 304.833C249.313 309.867 258.352 313.611 267.799 315.935L270.022 316.482C274.077 317.48 278.213 318.116 282.381 318.382L286.916 318.672C295.078 319.193 303.248 317.768 310.752 314.515L312.791 313.631C316.371 312.08 319.687 309.979 322.619 307.405L326.368 304.113C329.721 301.17 332.085 297.265 333.139 292.929L333.699 290.624C335.178 284.541 333.311 278.13 328.796 273.793C325.832 270.945 321.964 269.225 317.864 268.934L315.58 268.771C309.321 268.325 303.288 271.203 299.696 276.348C297.322 279.748 293.836 282.215 289.839 283.322L288.216 283.772C284.036 284.931 279.61 284.857 275.471 283.559L269.363 281.644C267.343 281.011 265.372 280.234 263.464 279.318L261.761 278.501C254.044 274.797 247.067 269.719 241.171 263.514L235.716 257.774L226.359 247.795C224.486 245.797 222.876 243.568 221.569 241.161L220.437 239.076C218.547 235.595 217.587 231.685 217.65 227.724C217.737 222.218 219.794 216.925 223.448 212.805L226.131 209.781C227.715 207.995 228.976 205.945 229.856 203.725L230.746 201.481C232.851 196.17 232.015 190.143 228.542 185.605C226.17 182.505 222.762 180.362 218.94 179.567Z" fill="white"/>
</svg>
